<svg xmlns="http://www.w3.org/2000/svg" width="32" height="32" viewBox="0 0 100 100">
  <rect width="100" height="100" fill="#1a56db"/>
  <rect x="5" y="5" width="90" height="90" fill="white"/>
  <rect x="10" y="10" width="40" height="40" fill="#1a56db"/>
  <rect x="50" y="10" width="40" height="40" fill="#1a56db"/>
  <rect x="10" y="50" width="40" height="40" fill="#1a56db"/>
  <rect x="50" y="50" width="40" height="40" fill="#1a56db"/>
  <path d="M20 20 Q30 15 40 20 Q35 25 30 30 Q25 35 20 30 Q15 25 20 20 Z" fill="white"/>
  <path d="M20 20 L25 35 L30 20 L35 35 L40 20" stroke="white" stroke-width="2" fill="none"/>
  <path d="M60 20 Q70 15 80 20 Q75 25 70 30 Q65 35 60 30 Q55 25 60 20 Z" fill="white"/>
  <path d="M60 20 L70 35 L80 20" stroke="white" stroke-width="2" fill="none"/>
  <path d="M20 60 Q30 55 40 60 Q35 65 30 70 Q25 75 20 70 Q15 65 20 60 Z" fill="white"/>
  <path d="M20 60 L25 85 L30 60 L35 85 L40 60" stroke="white" stroke-width="2" fill="none"/>
  <path d="M60 60 Q70 55 80 60 Q75 65 70 70 Q65 75 60 70 Q55 65 60 60 Z" fill="white"/>
  <path d="M60 60 L70 85 L80 60" stroke="white" stroke-width="2" fill="none"/>
</svg>